<?xml version="1.0" encoding="UTF-8"?>
<svg xmlns="http://www.w3.org/2000/svg" xmlns:xlink="http://www.w3.org/1999/xlink" viewBox="0 0 824.27 368.44">
  <defs>
    <style>
      .cls-1 {
        fill: url(#radial-gradient-2);
      }

      .cls-1, .cls-2, .cls-3 {
        mix-blend-mode: color-dodge;
      }

      .cls-1, .cls-3 {
        opacity: .7;
      }

      .cls-4 {
        fill: url(#linear-gradient-2);
      }

      .cls-5 {
        fill: #fff;
      }

      .cls-6 {
        fill: url(#linear-gradient-14);
      }

      .cls-7 {
        fill: url(#linear-gradient-6);
      }

      .cls-8 {
        isolation: isolate;
      }

      .cls-9 {
        fill: url(#linear-gradient-11);
      }

      .cls-2 {
        fill: url(#radial-gradient);
      }

      .cls-10 {
        fill: url(#linear-gradient-10);
      }

      .cls-11 {
        fill: #0f3f5d;
      }

      .cls-12 {
        fill: url(#linear-gradient-5);
      }

      .cls-13 {
        fill: url(#linear-gradient-7);
      }

      .cls-3 {
        fill: url(#radial-gradient-3);
      }

      .cls-14 {
        fill: url(#linear-gradient-9);
      }

      .cls-15 {
        fill: url(#linear-gradient-3);
      }

      .cls-16 {
        fill: url(#linear-gradient);
      }

      .cls-17 {
        fill: url(#linear-gradient-4);
      }

      .cls-18 {
        fill: url(#linear-gradient-8);
      }

      .cls-19 {
        fill: url(#linear-gradient-12);
      }

      .cls-20 {
        fill: url(#linear-gradient-13);
      }
    </style>
    <linearGradient id="linear-gradient" x1="159.26" y1="356.36" x2="-2.37" y2="76.4" gradientUnits="userSpaceOnUse">
      <stop offset="0" stop-color="#00857f"/>
      <stop offset=".98" stop-color="#002f55"/>
    </linearGradient>
    <linearGradient id="linear-gradient-2" x1="183.16" y1="347.15" x2="10.12" y2="47.45" gradientUnits="userSpaceOnUse">
      <stop offset="0" stop-color="#00857f"/>
      <stop offset=".79" stop-color="#002f55"/>
    </linearGradient>
    <linearGradient id="linear-gradient-3" x1="232.96" y1="230.43" x2="119.58" y2="34.04" xlink:href="#linear-gradient"/>
    <linearGradient id="linear-gradient-4" x1="163.12" y1="353.93" x2="32.55" y2="127.77" gradientUnits="userSpaceOnUse">
      <stop offset="0" stop-color="#56e9de" stop-opacity="0"/>
      <stop offset=".24" stop-color="#01aa7a"/>
      <stop offset=".63" stop-color="#005861" stop-opacity=".34"/>
      <stop offset=".85" stop-color="#002f55" stop-opacity="0"/>
    </linearGradient>
    <linearGradient id="linear-gradient-5" x1="162.92" y1="354.04" x2="32.05" y2="127.36" gradientUnits="userSpaceOnUse">
      <stop offset="0" stop-color="#ceffff"/>
      <stop offset=".24" stop-color="#c6ffff"/>
      <stop offset=".36" stop-color="#9cd3db" stop-opacity=".79"/>
      <stop offset=".7" stop-color="#2d5e7b" stop-opacity=".23"/>
      <stop offset=".85" stop-color="#002f55" stop-opacity="0"/>
    </linearGradient>
    <linearGradient id="linear-gradient-6" x1="159.79" y1="331.77" x2="95.11" y2="219.74" gradientUnits="userSpaceOnUse">
      <stop offset="0" stop-color="#56e9de"/>
      <stop offset=".24" stop-color="#01aa7a"/>
      <stop offset=".63" stop-color="#005861" stop-opacity=".34"/>
      <stop offset=".85" stop-color="#002f55" stop-opacity="0"/>
    </linearGradient>
    <linearGradient id="linear-gradient-7" x1="182.33" y1="302.96" x2="99.68" y2="159.8" xlink:href="#linear-gradient-6"/>
    <linearGradient id="linear-gradient-8" x1="175.86" y1="307.15" x2="92.84" y2="163.36" xlink:href="#linear-gradient-5"/>
    <linearGradient id="linear-gradient-9" x1="234.72" y1="224.46" x2="136.07" y2="53.58" xlink:href="#linear-gradient-6"/>
    <linearGradient id="linear-gradient-10" x1="227.97" y1="228.86" x2="129.07" y2="57.55" xlink:href="#linear-gradient-5"/>
    <radialGradient id="radial-gradient" cx="215.42" cy="94.17" fx="215.42" fy="94.17" r="95.93" gradientUnits="userSpaceOnUse">
      <stop offset=".66" stop-color="#000"/>
      <stop offset="1" stop-color="#ffffc8"/>
    </radialGradient>
    <radialGradient id="radial-gradient-2" cx="156.06" cy="242.78" fx="156.06" fy="242.78" r="186.79" gradientUnits="userSpaceOnUse">
      <stop offset=".71" stop-color="#000"/>
      <stop offset="1" stop-color="#ffffc8"/>
    </radialGradient>
    <linearGradient id="linear-gradient-11" x1="211.89" y1="308.49" x2="39.68" y2="10.21" xlink:href="#linear-gradient"/>
    <linearGradient id="linear-gradient-12" x1="214.74" y1="304.26" x2="43.65" y2="7.92" xlink:href="#linear-gradient-6"/>
    <linearGradient id="linear-gradient-13" x1="207.91" y1="308.75" x2="36.35" y2="11.59" xlink:href="#linear-gradient-5"/>
    <radialGradient id="radial-gradient-3" cx="173.88" cy="80.93" fx="173.88" fy="80.93" r="151.38" xlink:href="#radial-gradient-2"/>
    <linearGradient id="linear-gradient-14" x1="154.45" y1="335.18" x2="89.44" y2="222.58" xlink:href="#linear-gradient-5"/>
  </defs>
  <g class="cls-8">
    <g id="Layer_2" data-name="Layer 2">
      <g id="Layer_1-2" data-name="Layer 1">
        <g>
          <g>
            <path class="cls-16" d="M138.51,367.32c-.05,.37-.11,.75-.17,1.12-35.37-53.15-72.88-57.82-104.44-88.71-8.1-7.93-15.81-17.59-22.99-30.24C-21.64,187.48,21.73,101.78,100.09,103.78c-.01,0-.02,0-.03,0-1.77,.09-3.5,.21-5.21,.38C27.83,110.63,7.56,176.25,38.74,235.13c4.16,7.84,10.57,14.95,18.2,21.76,33.35,29.81,89.86,54.07,81.57,110.44Z"/>
            <path class="cls-4" d="M166.13,309.13c8.48-16.04,14.3-25.74,13.26-40.84-2.16-31.52-12.25-34.09-47.51-64.02-26.87-22.81-30.96-26.59-31.51-37.35-.19-3.75,.81-6.3,.78-7.97-.05,.16-15.45,17.86-17.2,31.79-5.2,41.4,82.73,54.68,77.32,111.84-6.04-28.47-33.31-43.01-54.92-59.75-16.91-13.1-15.16-20.82-15.16-20.82,0,0-22.91,24.86-6.63,39.45,26.58,23.83,63.71,40.31,60.9,78.58,3.17-3.96,18.06-25.96,20.68-30.92Z"/>
            <path class="cls-15" d="M216.14,209.02c3.73-29.83-25.73-52-50.73-72.91-2.4-2.01-4.76-4-7.04-5.99-11.41-9.93-20.98-19.71-24.53-30.05-8.26-24.02,13.72-52.42,14.68-53.65,.02-.03,.04-.04,.04-.04,0,0-.14,3.16-.28,7.92,.71,18.6,18.09,33.2,36.18,47.01,11.02,8.42,22.29,16.53,30.22,25.08,36.21,39.04,12.27,84.89-14.73,123.1,10.53-15.48,16.04-39.13,16.21-40.48Z"/>
            <path class="cls-17" d="M138.51,367.32c-.06,.31-.12,.62-.18,.92-15.18-47.38-48.46-62.1-76.69-82.84C-18.05,234.42,2.26,106.85,94.85,104.16,27.83,110.63,7.56,176.25,38.74,235.13c22.32,42.15,109.95,62.93,99.77,132.19Z"/>
            <path class="cls-12" d="M138.32,368.24c-2.52-7.06-5.18-14.11-8.92-20.62l-1.33-2.47c-.46-.82-.99-1.59-1.49-2.38-1.02-1.57-1.99-3.17-3.04-4.73l-3.35-4.51-.84-1.13-.91-1.07-1.82-2.14c-4.87-5.68-10.25-10.93-16.08-15.64-5.79-4.75-11.89-9.11-18.08-13.35-6.19-4.23-12.47-8.35-18.57-12.72l-2.29-1.63-2.34-1.57c-1.58-1.01-3.08-2.15-4.61-3.25-3-2.27-5.93-4.64-8.68-7.22-5.56-5.08-10.52-10.81-14.89-16.95-4.31-6.18-8.01-12.79-10.94-19.74-5.83-13.9-8.72-29.02-8.45-44.08,.26-15.05,3.68-30.1,10.45-43.57,6.72-13.47,17.02-25.22,29.84-33.15,3.2-1.98,6.54-3.74,10-5.21,1.71-.79,3.49-1.4,5.24-2.07,1.79-.58,3.56-1.2,5.38-1.67,7.23-2.05,14.74-2.99,22.23-3.22-7.49,.32-14.98,1.33-22.17,3.46-1.81,.48-3.57,1.12-5.35,1.72-1.74,.69-3.51,1.32-5.2,2.12-3.43,1.5-6.73,3.28-9.89,5.29-12.7,7.94-22.89,19.64-29.51,33.03-6.67,13.4-10,28.35-10.21,43.29-.21,14.95,2.71,29.92,8.54,43.68,2.88,6.89,6.52,13.46,10.77,19.6,4.31,6.1,9.2,11.8,14.7,16.86,2.72,2.57,5.62,4.93,8.59,7.2,1.52,1.09,3,2.23,4.58,3.25l2.33,1.57,2.29,1.64c6.09,4.4,12.33,8.53,18.52,12.79,6.18,4.26,12.28,8.66,18.07,13.45,5.83,4.75,11.22,10.04,16.08,15.77l1.81,2.17,.9,1.09,.83,1.14,3.31,4.56c1.03,1.57,2,3.18,3,4.77,.49,.8,1.01,1.58,1.47,2.41l1.31,2.49c3.68,6.56,6.27,13.65,8.71,20.73Z"/>
            <path class="cls-7" d="M156.19,324.67c-4.51,6.71-9.13,13.37-10.74,15.38,0-.08,.01-.14,.01-.22,0,0,0,0,0,0,17.6-38.49-12.26-60.59-22.16-67.13-10.06-6.64-30.04-18.1-35.08-27.95-4.07-7.94,.81-18.72,2.85-22.6,.08-.09,.12-.13,.12-.13,0,0-1.75,7.72,15.16,20.82,21.6,16.74,48.86,31.26,54.91,59.71,.1,5.94-.67,14.7-5.07,22.13Z"/>
            <path class="cls-13" d="M166.13,309.13c-.54,1.02-1.59,2.75-2.95,4.89,23.33-58.59-21.53-78.55-35.32-89.46-13.52-10.69-29.1-19.47-33.23-36.43-2.62-10.77,2.34-22.2,5.14-27.48,.85-1.06,1.37-1.67,1.37-1.7,.03,1.68-.97,4.22-.78,7.97,.54,10.76,4.64,14.54,31.51,37.35,35.27,29.93,45.35,32.5,47.51,64.02,1.04,15.1-4.78,24.8-13.26,40.84Z"/>
            <path class="cls-18" d="M163.18,314.02c2.8-7.24,4.89-14.77,5.79-22.46,.97-7.67,.59-15.54-1.53-22.95-2.06-7.44-5.97-14.27-10.93-20.16-4.97-5.91-10.99-10.85-17.31-15.31-3.15-2.25-6.39-4.37-9.56-6.65-1.59-1.15-3.11-2.37-4.63-3.55l-4.64-3.51c-6.18-4.67-12.5-9.34-17.62-15.3-2.54-2.97-4.75-6.26-6.34-9.84l-1.07-2.74c-.32-.93-.55-1.88-.83-2.82-.49-1.9-.79-3.85-.83-5.81-.09-1.96,.06-3.92,.35-5.84,.27-1.93,.71-3.84,1.26-5.7,1.08-3.74,2.63-7.33,4.47-10.75h0s1.39-1.69,1.39-1.69l-1.36,1.71h0c-1.77,3.45-3.24,7.06-4.24,10.8-.51,1.87-.9,3.76-1.13,5.68-.15,.96-.18,1.92-.26,2.88,0,.96-.06,1.93,.02,2.89,.06,1.92,.38,3.83,.88,5.68,.29,.92,.53,1.85,.85,2.76l1.08,2.67c1.6,3.5,3.81,6.7,6.34,9.59,5.11,5.79,11.36,10.45,17.57,15.08l4.66,3.49c1.55,1.19,3.06,2.4,4.62,3.51,3.14,2.24,6.41,4.35,9.58,6.62,6.33,4.51,12.41,9.52,17.43,15.53,5,5.99,8.99,12.95,10.97,20.54,2.06,7.55,2.35,15.51,1.27,23.22-1.07,7.72-3.32,15.22-6.27,22.4Z"/>
            <path class="cls-14" d="M205.6,241.27c39.27-65.96,.91-98.95-10.13-107.38-10.31-7.86-32.69-20.77-46.44-40.94-9.75-14.3-4.72-35.06-.97-45.92,.32-.43,.5-.65,.5-.65,0,0-.14,3.16-.28,7.92,1.14,29.93,45.45,49.51,66.4,72.09,33.65,36.28,15.36,78.43-9.06,114.88Z"/>
            <path class="cls-10" d="M205.6,241.27c4.82-8.25,8.96-16.92,11.99-25.98,3.07-9.02,4.94-18.5,4.89-28.02,0-9.5-2.02-19.02-6.16-27.58-4.11-8.57-10.16-16.15-17.36-22.33-3.58-3.12-7.52-5.81-11.43-8.56-3.92-2.74-7.83-5.5-11.65-8.4-3.82-2.89-7.54-5.92-11.09-9.15-3.54-3.23-6.96-6.61-10.06-10.28-.8-.89-1.51-1.86-2.27-2.79l-1.12-1.41-1.05-1.46-1.05-1.46-.52-.73-.46-.78c-.62-1.04-1.28-2.06-1.73-3.18-2.05-4.38-3.05-9.18-3.32-13.97-.24-4.8,.24-9.61,1.1-14.31,.86-4.71,2.16-9.33,3.74-13.84-1.51,4.54-2.73,9.17-3.5,13.88-.78,4.71-1.17,9.49-.85,14.24,.32,4.74,1.34,9.46,3.4,13.73,.45,1.1,1.11,2.08,1.72,3.09l.46,.76,.52,.72,1.05,1.44,1.05,1.44,1.12,1.39c.76,.91,1.48,1.87,2.28,2.75,6.28,7.17,13.48,13.48,21.11,19.21,3.81,2.87,7.72,5.62,11.64,8.34,3.91,2.73,7.9,5.43,11.54,8.59,3.63,3.15,6.98,6.64,9.94,10.44,2.94,3.81,5.51,7.91,7.58,12.26,4.15,8.69,6.23,18.36,6.11,27.97-.05,9.62-2.01,19.15-5.2,28.18-3.19,9.04-7.49,17.65-12.45,25.82Z"/>
            <path class="cls-2" d="M184.44,101.31l-1.93,23.4-17.1,11.4c-2.4-2.01-4.76-4-7.04-5.99-11.41-9.93-20.98-19.71-24.53-30.05-8.26-24.02,13.72-52.42,14.68-53.65,.02-.03,.04-.04,.04-.04,0,0-.14,3.16-.28,7.92,.71,18.6,18.09,33.2,36.18,47.01Z"/>
            <path class="cls-1" d="M100.09,103.78s-.02,0-.03,0c-1.77,.09-3.5,.21-5.21,.38C27.83,110.63,7.56,176.25,38.74,235.13c4.16,7.84,10.57,14.95,18.2,21.76l-23.03,22.85c-8.1-7.93-15.81-17.59-22.99-30.24C-21.64,187.48,21.73,101.78,100.09,103.78Z"/>
            <path class="cls-9" d="M170.04,332.65c68.59-76.43,.21-125.09-60.95-177.27-3.68-3.14-7.45-6.28-11.26-9.43-14.82-12.28-30.14-24.79-42.13-38.34-9.34-10.55-16.65-21.73-20.13-33.92-6.77-23.69,4.78-52.39,19.82-71.28,0,0,0-.01,0-.01C56.04,1.58,56.7,.78,57.37,0c-14.94,18.17-1.43,47.93,15.2,68.11,12.01,14.57,26.42,27.17,41.29,39.46,6.96,5.75,14.01,11.43,20.97,17.21,23.23,19.31,47.37,38.82,63.62,64.01,29.58,45.83,11.05,109.02-28.42,143.86Z"/>
            <path class="cls-19" d="M176.86,326.13c81-97.25-32.88-166.67-59.99-190.48-28.19-24.75-60.04-41.94-68.29-71.5-7.38-26.43-2.74-45.06,2.84-56.41C53.32,5,55.32,2.4,57.37,0c-14.94,18.17-1.43,47.93,15.2,68.11,17.64,21.39,40.44,38.55,62.27,56.67,23.23,19.31,47.37,38.82,63.62,64.01,27.82,43.1,13.08,101.56-21.6,137.34Z"/>
            <path class="cls-20" d="M176.86,326.13c5.17-6.27,9.91-12.9,14.02-19.91l1.53-2.64,1.43-2.69c.99-1.77,1.79-3.64,2.69-5.46,1.63-3.71,3.2-7.47,4.38-11.35l.47-1.45,.41-1.46c.27-.98,.56-1.95,.81-2.93,.45-1.98,.94-3.94,1.26-5.95,.4-1.99,.61-4,.88-6.01,.17-2.02,.36-4.04,.4-6.06,.29-8.1-.74-16.22-2.79-24.05-4.19-15.7-12.53-30.01-22.63-42.65-10.12-12.7-21.98-23.9-34.42-34.32-6.23-5.21-12.6-10.25-18.99-15.28-3.19-2.53-6.39-5.04-9.47-7.72-3.05-2.68-6.15-5.3-9.3-7.87-6.28-5.15-12.72-10.11-19.08-15.18-6.36-5.07-12.66-10.24-18.53-15.9-5.85-5.65-11.29-11.84-15.48-18.86-2.09-3.51-3.85-7.22-5.18-11.08-.33-.96-.61-1.95-.91-2.92l-.76-2.96c-.54-1.97-.92-3.97-1.33-5.96-.74-4-1.34-8.05-1.53-12.12-.23-4.07-.23-8.15,.18-12.21,.75-8.11,2.86-16.11,6.47-23.41h0s0,0,0,0c1.88-2.67,3.87-5.25,6-7.72-2.11,2.49-4.07,5.09-5.92,7.78h0c-3.53,7.32-5.55,15.31-6.22,23.39-.36,4.04-.33,8.11-.06,12.15,.24,4.05,.85,8.07,1.6,12.05,.42,1.98,.8,3.97,1.35,5.93l.77,2.94c.31,.96,.58,1.94,.91,2.89,1.33,3.82,3.08,7.49,5.16,10.96,4.17,6.95,9.59,13.07,15.43,18.68,5.86,5.61,12.17,10.74,18.53,15.79,6.37,5.04,12.83,9.98,19.14,15.12,3.16,2.56,6.28,5.19,9.34,7.86,3.06,2.65,6.27,5.15,9.46,7.66,6.39,5.02,12.82,10.01,19.04,15.27,12.44,10.48,24.31,21.77,34.43,34.56,10.11,12.73,18.46,27.16,22.63,42.99,2.04,7.9,3.05,16.08,2.73,24.24-.04,2.04-.24,4.07-.42,6.1-.27,2.02-.49,4.05-.9,6.05-.33,2.01-.83,3.99-1.29,5.98-.26,.99-.55,1.96-.82,2.94-.26,.99-.57,1.96-.91,2.92-1.23,3.89-2.84,7.64-4.51,11.35-.92,1.82-1.74,3.68-2.75,5.45l-1.46,2.68-1.55,2.63c-4.18,6.98-8.99,13.57-14.22,19.79Z"/>
            <path class="cls-3" d="M113.86,107.57l-5.02,12.72-11.01,25.66c-14.82-12.28-30.14-24.79-42.13-38.34-9.34-10.55-16.65-21.73-20.13-33.92-6.77-23.69,4.78-52.39,19.82-71.28,0,0,0-.01,0-.01C56.04,1.58,56.7,.78,57.37,0c-14.94,18.17-1.43,47.93,15.2,68.11,12.01,14.57,26.42,27.17,41.29,39.46Z"/>
            <path class="cls-6" d="M145.45,340.05v-.22s0,0,0,0h0s0,0,0,0c2.4-5.62,4.24-11.53,4.86-17.6,.65-6.05,.17-12.24-1.69-18.03-1.83-5.79-4.82-11.18-8.61-15.93-3.79-4.75-8.3-8.91-13.2-12.51-2.44-1.82-5.01-3.47-7.58-5.12l-7.72-4.98c-5.11-3.38-10.2-6.84-14.87-10.85-2.32-2.02-4.56-4.15-6.48-6.59-.95-1.22-1.81-2.53-2.45-3.95-.68-1.42-.99-2.97-1.18-4.5-.16-1.55-.09-3.1,.07-4.63,.22-1.53,.51-3.04,.94-4.52,.84-2.96,2.06-5.79,3.52-8.48-1.37,2.74-2.49,5.6-3.26,8.55-.39,1.47-.65,2.98-.82,4.49-.12,1.51-.16,3.04,.04,4.53,.22,1.49,.53,2.98,1.21,4.32,.63,1.36,1.49,2.61,2.43,3.79,1.91,2.35,4.16,4.43,6.48,6.39,4.7,3.88,9.75,7.34,14.88,10.67l7.74,4.94c2.58,1.64,5.19,3.29,7.66,5.12,4.95,3.67,9.5,7.91,13.32,12.75,3.81,4.84,6.88,10.34,8.63,16.27,.89,2.96,1.46,6.01,1.68,9.09,.21,3.07,.19,6.17-.23,9.22-.42,3.05-1.04,6.07-2,8.99-.87,2.95-2.08,5.77-3.35,8.56h0s0,0,0,0h0s-.02,.22-.02,.22Z"/>
          </g>
          <g>
            <rect class="cls-11" x="282.54" y="223.92" width="535.22" height="49.64"/>
            <g>
              <path class="cls-11" d="M300.79,292.68l-6.97,13.42v7.64h-3.45v-7.64l-7-13.42h3.85l4.88,10.33,4.88-10.33h3.82Z"/>
              <path class="cls-11" d="M320.14,312.57c-1.65-.92-2.95-2.2-3.91-3.85-.96-1.65-1.44-3.5-1.44-5.56s.48-3.91,1.44-5.54c.96-1.64,2.26-2.91,3.91-3.83,1.65-.92,3.45-1.38,5.41-1.38s3.79,.46,5.44,1.38c1.65,.92,2.94,2.2,3.89,3.83,.95,1.64,1.42,3.48,1.42,5.54s-.47,3.91-1.42,5.56c-.95,1.65-2.25,2.93-3.89,3.85-1.65,.92-3.46,1.38-5.44,1.38s-3.76-.46-5.41-1.38Zm9.13-2.58c1.09-.64,1.94-1.54,2.56-2.73s.92-2.55,.92-4.11-.31-2.92-.92-4.09c-.62-1.17-1.47-2.07-2.56-2.7s-2.33-.94-3.73-.94-2.64,.31-3.73,.94-1.94,1.53-2.56,2.7c-.62,1.17-.92,2.54-.92,4.09s.31,2.92,.92,4.11,1.47,2.09,2.56,2.73c1.09,.64,2.33,.96,3.73,.96s2.64-.32,3.73-.96Z"/>
              <path class="cls-11" d="M355.54,292.68v13.42c0,1.6,.42,2.8,1.26,3.61,.84,.81,2,1.21,3.5,1.21s2.69-.4,3.53-1.21c.84-.81,1.26-2.01,1.26-3.61v-13.42h3.45v13.36c0,1.72-.37,3.17-1.12,4.36-.75,1.19-1.75,2.08-3,2.67-1.25,.59-2.64,.88-4.15,.88s-2.89-.29-4.14-.88c-1.24-.58-2.23-1.47-2.95-2.67-.73-1.19-1.09-2.65-1.09-4.36v-13.36h3.45Z"/>
              <path class="cls-11" d="M396.39,313.73l-4.85-8.42h-2.64v8.42h-3.45v-21.06h7.27c1.62,0,2.98,.28,4.11,.85s1.96,1.32,2.51,2.27,.83,2.01,.83,3.18c0,1.37-.4,2.62-1.2,3.74s-2.03,1.88-3.68,2.29l5.21,8.73h-4.12Zm-7.48-11.18h3.82c1.29,0,2.27-.32,2.92-.97s.99-1.52,.99-2.61-.32-1.94-.97-2.56c-.65-.62-1.63-.92-2.94-.92h-3.82v7.06Z"/>
              <path class="cls-11" d="M450.09,293.96c1.69,.86,2.99,2.09,3.91,3.7,.92,1.61,1.38,3.48,1.38,5.62s-.46,4-1.38,5.58c-.92,1.58-2.22,2.78-3.91,3.62-1.69,.84-3.65,1.26-5.89,1.26h-6.88v-21.06h6.88c2.24,0,4.21,.43,5.89,1.29Zm-.23,14.95c1.31-1.33,1.97-3.21,1.97-5.64s-.66-4.35-1.97-5.73c-1.31-1.37-3.2-2.06-5.67-2.06h-3.42v15.42h3.42c2.46,0,4.35-.67,5.67-2Z"/>
              <path class="cls-11" d="M474.68,292.68v21.06h-3.45v-21.06h3.45Z"/>
              <path class="cls-11" d="M506.89,298.73c-.54-1.05-1.3-1.84-2.27-2.38s-2.09-.8-3.36-.8c-1.39,0-2.64,.31-3.73,.94-1.09,.63-1.94,1.52-2.56,2.67-.62,1.15-.92,2.48-.92,4s.31,2.85,.92,4.01c.62,1.16,1.47,2.06,2.56,2.68s2.33,.94,3.73,.94c1.88,0,3.4-.52,4.58-1.58,1.17-1.05,1.89-2.47,2.15-4.27h-7.91v-2.76h11.6v2.7c-.22,1.64-.8,3.14-1.74,4.51-.94,1.37-2.16,2.47-3.67,3.29-1.5,.82-3.18,1.23-5.01,1.23-1.98,0-3.79-.46-5.42-1.38-1.64-.92-2.93-2.2-3.89-3.83-.96-1.64-1.44-3.48-1.44-5.54s.48-3.91,1.44-5.54c.96-1.64,2.26-2.91,3.91-3.83,1.65-.92,3.45-1.38,5.41-1.38,2.24,0,4.24,.55,5.98,1.65,1.75,1.1,3.01,2.66,3.8,4.68h-4.15Z"/>
              <path class="cls-11" d="M530.94,292.68v21.06h-3.45v-21.06h3.45Z"/>
              <path class="cls-11" d="M561.52,292.68v2.82h-5.61v18.24h-3.45v-18.24h-5.64v-2.82h14.7Z"/>
              <path class="cls-11" d="M590.12,309.43h-8.82l-1.51,4.3h-3.61l7.54-21.09h4l7.54,21.09h-3.64l-1.51-4.3Zm-.97-2.82l-3.42-9.79-3.45,9.79h6.88Z"/>
              <path class="cls-11" d="M614.42,310.95h7.12v2.79h-10.57v-21.06h3.45v18.27Z"/>
              <path class="cls-11" d="M673.95,292.68v21.06h-3.45v-9.21h-9.91v9.21h-3.45v-21.06h3.45v9.03h9.91v-9.03h3.45Z"/>
              <path class="cls-11" d="M703.62,309.43h-8.82l-1.51,4.3h-3.61l7.54-21.09h4l7.54,21.09h-3.64l-1.51-4.3Zm-.97-2.82l-3.42-9.79-3.45,9.79h6.88Z"/>
              <path class="cls-11" d="M737.23,293.96c1.69,.86,2.99,2.09,3.91,3.7,.92,1.61,1.38,3.48,1.38,5.62s-.46,4-1.38,5.58c-.92,1.58-2.22,2.78-3.91,3.62-1.69,.84-3.65,1.26-5.89,1.26h-6.88v-21.06h6.88c2.24,0,4.21,.43,5.89,1.29Zm-.23,14.95c1.31-1.33,1.97-3.21,1.97-5.64s-.66-4.35-1.97-5.73c-1.31-1.37-3.2-2.06-5.67-2.06h-3.42v15.42h3.42c2.46,0,4.35-.67,5.67-2Z"/>
              <path class="cls-11" d="M761.82,292.68v21.06h-3.45v-21.06h3.45Z"/>
            </g>
            <g>
              <path class="cls-11" d="M282.54,117.27h30.39v32.42h65.21v-32.42h30.39v89h-30.39v-35.05h-65.21v35.05h-30.39V117.27Z"/>
              <path class="cls-11" d="M516.02,189.09v17.95h-22.34c-6.01,0-9.5-3.03-10.49-9.09-2.06,2.54-5.55,4.9-10.49,7.06-4.94,2.17-11.68,3.26-20.24,3.26h-1.61c-10.45,0-18.21-2.05-23.27-6.14-5.06-4.1-7.59-9.26-7.59-15.49v-.86c0-6.07,2.16-10.65,6.48-13.77,4.32-3.11,11.46-5.12,21.42-6.02l30.36-2.83c2.8-.33,4.2-1.48,4.2-3.44,0-1.07-.27-1.93-.8-2.58-.54-.66-2.16-1.29-4.88-1.9-2.71-.61-6.58-.92-11.6-.92l-45.18,.07v-15.32h48.02c7.4,0,13.74,.45,19.01,1.35,5.27,.9,9.3,2.01,12.1,3.32,2.8,1.31,4.98,3.01,6.54,5.1,1.56,2.09,2.51,3.96,2.84,5.59,.33,1.64,.49,3.65,.49,6.02v25.32c0,2.21,1.15,3.32,3.46,3.32h3.58Zm-33.57-13.52l-26.29,4.06c-3.7,.58-6.29,1.29-7.78,2.15-1.48,.86-2.22,2.19-2.22,3.99v.12c0,2.05,.95,3.81,2.84,5.28,1.89,1.47,4.98,2.21,9.26,2.21,7.08,0,12.88-1.6,17.4-4.8,4.53-3.2,6.79-6.84,6.79-10.94v-2.09Z"/>
              <path class="cls-11" d="M775.55,115.35v89.78h-26.9v-9.9c-.65,.88-1.66,1.87-3.03,2.96-1.37,1.09-3.31,2.31-5.82,3.68s-5.82,2.51-9.94,3.44c-1.68,.38-3.41,.68-5.21,.9-2.62,.33-153.96,.49-156.83,.49h-1.58c-13.73,0-24.01-3.12-30.84-9.35-6.83-6.23-10.24-14.26-10.24-24.07v-2.29c0-9.49,3.23-17.25,9.7-23.29,6.46-6.03,16.56-9.05,30.3-9.05h1.94c2.62,0,153.73,.12,156.13,.36,10.42,1.04,18.81,4.34,25.18,9.89v-33.54h27.15Zm-27.14,57.44v-.48c0-4.51-2.22-8.41-6.67-11.71-4.44-3.3-10.46-4.95-18.06-4.95h-.61c-2.8,0-153.9,.2-156.12,.6-4,.72-7.07,2.09-9.2,4.11-3.31,3.14-4.97,7.12-4.97,11.95v.48c0,4.5,1.82,8.42,5.45,11.76,2.24,2.06,5.19,3.48,8.85,4.27,2.27,.49,153.4,.73,156.22,.73h.61c7.59,0,13.57-1.67,17.93-5.01,4.36-3.34,6.54-7.26,6.54-11.76h0Z"/>
              <path class="cls-11" d="M817.76,135.47h-29.06v-18.41h29.06v18.41Zm0,70.53h-29.06v-64.31h29.06v64.31Z"/>
            </g>
            <g>
              <path class="cls-5" d="M302.27,240.92v6.01h9.69v5.58h-9.69v6.52h10.96v5.8h-18.19v-29.7h18.19v5.8h-10.96Z"/>
              <path class="cls-5" d="M345.97,259.24h9.48v5.58h-16.71v-29.7h7.23v24.12Z"/>
              <path class="cls-5" d="M372.08,240.92v6.01h9.69v5.58h-9.69v6.52h10.96v5.8h-18.19v-29.7h18.19v5.8h-10.96Z"/>
              <path class="cls-5" d="M412.14,259.58h-11.08l-1.78,5.25h-7.57l10.75-29.7h8.38l10.75,29.7h-7.66l-1.78-5.25Zm-1.86-5.58l-3.68-10.87-3.64,10.87h7.32Z"/>
              <path class="cls-5" d="M445.91,264.83l-6.18-11.21h-1.74v11.21h-7.23v-29.7h12.14c2.34,0,4.34,.41,5.99,1.23,1.65,.82,2.88,1.94,3.7,3.36,.82,1.42,1.23,3.01,1.23,4.76,0,1.97-.56,3.74-1.67,5.29-1.11,1.55-2.76,2.65-4.93,3.3l6.85,11.76h-8.17Zm-7.91-16.33h4.49c1.33,0,2.32-.32,2.98-.97,.66-.65,.99-1.57,.99-2.75s-.33-2.02-.99-2.67c-.66-.65-1.66-.97-2.98-.97h-4.49v7.36Z"/>
              <path class="cls-5" d="M490.84,264.83h-7.23l-12.1-18.32v18.32h-7.23v-29.7h7.23l12.1,18.4v-18.4h7.23v29.7Z"/>
              <path class="cls-5" d="M509.24,235.13v29.7h-7.23v-29.7h7.23Z"/>
              <path class="cls-5" d="M546.98,264.83h-7.23l-12.1-18.32v18.32h-7.23v-29.7h7.23l12.1,18.4v-18.4h7.23v29.7Z"/>
              <path class="cls-5" d="M577.87,244.52c-.54-.99-1.3-1.74-2.31-2.26-1-.52-2.18-.78-3.53-.78-2.34,0-4.22,.77-5.63,2.31s-2.12,3.59-2.12,6.16c0,2.74,.74,4.87,2.22,6.41,1.48,1.54,3.52,2.31,6.11,2.31,1.78,0,3.28-.45,4.51-1.35,1.23-.9,2.12-2.2,2.69-3.89h-9.18v-5.33h15.74v6.73c-.54,1.81-1.45,3.48-2.73,5.04-1.28,1.55-2.91,2.81-4.89,3.77-1.97,.96-4.2,1.44-6.68,1.44-2.93,0-5.55-.64-7.85-1.93-2.3-1.28-4.09-3.07-5.37-5.35-1.28-2.29-1.92-4.89-1.92-7.83s.64-5.55,1.92-7.85c1.28-2.3,3.07-4.09,5.35-5.37,2.29-1.28,4.89-1.92,7.83-1.92,3.55,0,6.55,.86,8.99,2.58,2.44,1.72,4.05,4.1,4.84,7.15h-8Z"/>
              <path class="cls-5" d="M616.11,264.07c-1.72-.7-3.1-1.75-4.12-3.13-1.03-1.38-1.57-3.05-1.63-4.99h7.7c.11,1.1,.49,1.94,1.14,2.52,.65,.58,1.5,.87,2.54,.87s1.92-.25,2.54-.74c.62-.49,.93-1.18,.93-2.05,0-.73-.25-1.34-.74-1.82-.49-.48-1.1-.87-1.82-1.18-.72-.31-1.74-.66-3.07-1.06-1.92-.59-3.48-1.19-4.7-1.78-1.21-.59-2.26-1.47-3.13-2.62s-1.31-2.67-1.31-4.53c0-2.76,1-4.93,3-6.49s4.61-2.35,7.83-2.35,5.91,.78,7.91,2.35c2,1.57,3.07,3.74,3.21,6.54h-7.83c-.06-.96-.41-1.71-1.06-2.26-.65-.55-1.48-.83-2.5-.83-.87,0-1.58,.23-2.12,.7-.54,.46-.8,1.14-.8,2.01,0,.96,.45,1.71,1.35,2.24,.9,.54,2.31,1.11,4.23,1.73,1.92,.65,3.48,1.27,4.67,1.86,1.2,.59,2.23,1.45,3.11,2.58,.87,1.13,1.31,2.58,1.31,4.36s-.43,3.23-1.29,4.61c-.86,1.38-2.11,2.48-3.74,3.3s-3.57,1.23-5.8,1.23-4.12-.35-5.84-1.06Z"/>
              <path class="cls-5" d="M668.62,235.13l-10.28,19.88v9.82h-7.23v-9.82l-10.28-19.88h8.21l5.75,12.44,5.71-12.44h8.12Z"/>
              <path class="cls-5" d="M682.37,264.07c-1.72-.7-3.1-1.75-4.12-3.13-1.03-1.38-1.57-3.05-1.63-4.99h7.7c.11,1.1,.49,1.94,1.14,2.52,.65,.58,1.5,.87,2.54,.87s1.92-.25,2.54-.74c.62-.49,.93-1.18,.93-2.05,0-.73-.25-1.34-.74-1.82-.49-.48-1.1-.87-1.82-1.18-.72-.31-1.74-.66-3.07-1.06-1.92-.59-3.48-1.19-4.7-1.78-1.21-.59-2.26-1.47-3.13-2.62s-1.31-2.67-1.31-4.53c0-2.76,1-4.93,3-6.49s4.61-2.35,7.83-2.35,5.91,.78,7.91,2.35c2,1.57,3.07,3.74,3.21,6.54h-7.83c-.06-.96-.41-1.71-1.06-2.26-.65-.55-1.48-.83-2.5-.83-.87,0-1.58,.23-2.12,.7-.54,.46-.8,1.14-.8,2.01,0,.96,.45,1.71,1.35,2.24,.9,.54,2.31,1.11,4.23,1.73,1.92,.65,3.48,1.27,4.67,1.86,1.2,.59,2.23,1.45,3.11,2.58,.87,1.13,1.31,2.58,1.31,4.36s-.43,3.23-1.29,4.61c-.86,1.38-2.11,2.48-3.74,3.3s-3.57,1.23-5.8,1.23-4.12-.35-5.84-1.06Z"/>
              <path class="cls-5" d="M730.77,235.13v5.8h-7.87v23.9h-7.23v-23.9h-7.87v-5.8h22.97Z"/>
              <path class="cls-5" d="M747.56,240.92v6.01h9.69v5.58h-9.69v6.52h10.96v5.8h-18.19v-29.7h18.19v5.8h-10.96Z"/>
              <path class="cls-5" d="M802.77,235.13v29.7h-7.23v-17.81l-6.64,17.81h-5.84l-6.69-17.85v17.85h-7.23v-29.7h8.55l8.33,20.56,8.25-20.56h8.5Z"/>
            </g>
          </g>
        </g>
      </g>
    </g>
  </g>
</svg>