<?xml version="1.0" encoding="UTF-8"?>
<svg xmlns="http://www.w3.org/2000/svg" xmlns:xlink="http://www.w3.org/1999/xlink" viewBox="0 0 820.44 370.85">
  <defs>
    <style>
      .cls-1 {
        fill: url(#radial-gradient-2);
      }

      .cls-1, .cls-2, .cls-3 {
        mix-blend-mode: color-dodge;
      }

      .cls-1, .cls-3 {
        opacity: .7;
      }

      .cls-4 {
        fill: url(#linear-gradient-2);
      }

      .cls-5 {
        fill: #fff;
      }

      .cls-6 {
        fill: url(#linear-gradient-8);
      }

      .cls-6, .cls-7, .cls-8, .cls-9, .cls-10, .cls-11 {
        mix-blend-mode: luminosity;
      }

      .cls-6, .cls-7, .cls-8, .cls-9, .cls-11 {
        opacity: .35;
      }

      .cls-12 {
        isolation: isolate;
      }

      .cls-2 {
        fill: url(#radial-gradient);
      }

      .cls-13 {
        fill: url(#linear-gradient-10);
      }

      .cls-7 {
        fill: url(#linear-gradient-3);
      }

      .cls-8 {
        fill: url(#linear-gradient-6);
      }

      .cls-14 {
        fill: url(#linear-gradient-5);
      }

      .cls-9 {
        fill: url(#linear-gradient-4);
      }

      .cls-15 {
        fill: url(#linear-gradient-7);
      }

      .cls-3 {
        fill: url(#radial-gradient-3);
      }

      .cls-16 {
        fill: url(#linear-gradient-9);
      }

      .cls-17 {
        fill: #1a1a1a;
      }

      .cls-11 {
        fill: url(#linear-gradient);
      }

      .cls-18 {
        fill: #f2f2f2;
      }
    </style>
    <linearGradient id="linear-gradient" x1="164.19" y1="356.24" x2="32.76" y2="128.61" gradientUnits="userSpaceOnUse">
      <stop offset="0" stop-color="#56e9de" stop-opacity="0"/>
      <stop offset=".24" stop-color="#01aa7a"/>
      <stop offset=".63" stop-color="#005861" stop-opacity=".34"/>
      <stop offset=".85" stop-color="#002f55" stop-opacity="0"/>
    </linearGradient>
    <linearGradient id="linear-gradient-2" x1="163.99" y1="356.36" x2="32.26" y2="128.2" gradientUnits="userSpaceOnUse">
      <stop offset="0" stop-color="#ceffff"/>
      <stop offset=".24" stop-color="#c6ffff"/>
      <stop offset=".36" stop-color="#9cd3db" stop-opacity=".79"/>
      <stop offset=".7" stop-color="#2d5e7b" stop-opacity=".23"/>
      <stop offset=".85" stop-color="#002f55" stop-opacity="0"/>
    </linearGradient>
    <linearGradient id="linear-gradient-3" x1="160.83" y1="333.94" x2="95.73" y2="221.18" gradientUnits="userSpaceOnUse">
      <stop offset="0" stop-color="#56e9de"/>
      <stop offset=".24" stop-color="#01aa7a"/>
      <stop offset=".63" stop-color="#005861" stop-opacity=".34"/>
      <stop offset=".85" stop-color="#002f55" stop-opacity="0"/>
    </linearGradient>
    <linearGradient id="linear-gradient-4" x1="183.52" y1="304.94" x2="100.33" y2="160.84" xlink:href="#linear-gradient-3"/>
    <linearGradient id="linear-gradient-5" x1="177" y1="309.16" x2="93.45" y2="164.44" xlink:href="#linear-gradient-2"/>
    <linearGradient id="linear-gradient-6" x1="236.26" y1="225.93" x2="136.96" y2="53.93" xlink:href="#linear-gradient-3"/>
    <linearGradient id="linear-gradient-7" x1="229.46" y1="230.35" x2="129.91" y2="57.93" xlink:href="#linear-gradient-2"/>
    <radialGradient id="radial-gradient" cx="216.83" cy="94.79" fx="216.83" fy="94.79" r="96.56" gradientUnits="userSpaceOnUse">
      <stop offset=".66" stop-color="#000"/>
      <stop offset="1" stop-color="#ffffc8"/>
    </radialGradient>
    <radialGradient id="radial-gradient-2" cx="157.08" cy="244.37" fx="157.08" fy="244.37" r="188.01" gradientUnits="userSpaceOnUse">
      <stop offset=".71" stop-color="#000"/>
      <stop offset="1" stop-color="#ffffc8"/>
    </radialGradient>
    <linearGradient id="linear-gradient-8" x1="216.15" y1="306.25" x2="43.93" y2="7.97" xlink:href="#linear-gradient-3"/>
    <linearGradient id="linear-gradient-9" x1="209.27" y1="310.76" x2="36.59" y2="11.67" xlink:href="#linear-gradient-2"/>
    <radialGradient id="radial-gradient-3" cx="175.01" cy="81.46" fx="175.01" fy="81.46" r="152.37" xlink:href="#radial-gradient-2"/>
    <linearGradient id="linear-gradient-10" x1="155.46" y1="337.37" x2="90.03" y2="224.04" xlink:href="#linear-gradient-2"/>
  </defs>
  <g class="cls-12">
    <g id="Layer_2" data-name="Layer 2">
      <g id="Layer_1-2" data-name="Layer 1">
        <g>
          <g>
            <path class="cls-5" d="M139.41,369.72c-.05,.38-.11,.75-.17,1.13-35.6-53.5-73.36-58.2-105.12-89.29-8.15-7.98-15.91-17.7-23.14-30.44C-21.78,188.71,21.87,102.45,100.75,104.46c-.01,0-.02,0-.03,0-1.78,.09-3.53,.21-5.24,.38C28.01,111.35,7.61,177.4,38.99,236.66c4.18,7.9,10.64,15.05,18.32,21.9,33.57,30,90.45,54.42,82.11,111.16Z"/>
            <path class="cls-5" d="M167.22,311.15c8.53-16.15,14.39-25.91,13.35-41.11-2.18-31.73-12.33-34.31-47.83-64.44-27.05-22.96-31.17-26.76-31.72-37.59-.19-3.78,.81-6.34,.79-8.03-.05,.16-15.55,17.97-17.32,32-5.24,41.67,83.27,55.04,77.82,112.57-6.08-28.66-33.53-43.29-55.28-60.14-17.02-13.19-15.26-20.95-15.26-20.95,0,0-23.06,25.02-6.68,39.71,26.76,23.99,64.12,40.57,61.3,79.1,3.19-3.98,18.18-26.13,20.82-31.12Z"/>
            <path class="cls-5" d="M217.56,210.39c3.75-30.02-25.9-52.34-51.07-73.39-2.41-2.02-4.79-4.03-7.09-6.03-11.49-10-21.12-19.84-24.69-30.25-8.32-24.17,13.81-52.76,14.78-54,.02-.03,.04-.04,.04-.04,0,0-.14,3.18-.29,7.97,.72,18.72,18.21,33.42,36.41,47.32,11.09,8.47,22.44,16.64,30.42,25.25,36.45,39.3,12.35,85.44-14.83,123.91,10.59-15.58,16.15-39.39,16.32-40.74Z"/>
            <path class="cls-11" d="M139.41,369.72c-.06,.31-.12,.62-.18,.93-15.28-47.69-48.77-62.51-77.19-83.38C-18.17,235.95,2.27,107.55,95.47,104.84,28.01,111.35,7.61,177.4,38.99,236.66c22.46,42.43,110.67,63.34,100.42,133.06Z"/>
            <g class="cls-10">
              <path class="cls-4" d="M139.23,370.65c-2.53-7.11-5.21-14.2-8.98-20.75l-1.34-2.49c-.46-.82-1-1.6-1.5-2.4-1.02-1.58-2-3.2-3.06-4.76l-3.37-4.54-.84-1.14-.91-1.08-1.83-2.15c-4.91-5.71-10.32-11.01-16.18-15.74-5.83-4.78-11.97-9.17-18.2-13.43-6.23-4.26-12.56-8.41-18.69-12.8l-2.3-1.64-2.35-1.58c-1.59-1.02-3.1-2.17-4.64-3.27-3.02-2.29-5.97-4.67-8.74-7.26-5.6-5.11-10.59-10.88-14.98-17.06-4.34-6.22-8.06-12.87-11.01-19.87-5.87-13.99-8.78-29.21-8.51-44.37,.27-15.15,3.71-30.3,10.52-43.86,6.76-13.55,17.13-25.39,30.04-33.37,3.22-2,6.58-3.76,10.06-5.25,1.72-.79,3.51-1.41,5.28-2.09,1.8-.59,3.58-1.21,5.42-1.68,7.28-2.07,14.84-3.01,22.38-3.24-7.54,.32-15.08,1.34-22.31,3.48-1.82,.49-3.6,1.13-5.38,1.73-1.75,.69-3.53,1.33-5.23,2.14-3.45,1.51-6.78,3.3-9.95,5.32-12.79,7.99-23.04,19.77-29.7,33.25-6.71,13.49-10.07,28.54-10.28,43.57-.21,15.04,2.73,30.12,8.59,43.97,2.89,6.94,6.56,13.55,10.84,19.73,4.34,6.14,9.26,11.88,14.8,16.97,2.73,2.58,5.66,4.96,8.65,7.24,1.53,1.1,3.02,2.24,4.61,3.27l2.35,1.58,2.3,1.65c6.13,4.42,12.42,8.59,18.64,12.87,6.22,4.29,12.36,8.72,18.19,13.53,5.87,4.78,11.29,10.11,16.18,15.87l1.82,2.18,.9,1.09,.83,1.15,3.33,4.59c1.04,1.58,2.01,3.2,3.02,4.8,.49,.81,1.02,1.59,1.47,2.42l1.32,2.51c3.7,6.61,6.31,13.74,8.76,20.87Z"/>
            </g>
            <path class="cls-7" d="M157.21,326.79c-4.53,6.76-9.19,13.46-10.81,15.48,0-.08,.01-.14,.01-.22,0,0,0,0,0,0,17.72-38.74-12.34-60.99-22.31-67.57-10.13-6.69-30.23-18.22-35.31-28.14-4.09-8,.81-18.84,2.87-22.74,.08-.09,.12-.13,.12-.13,0,0-1.76,7.77,15.26,20.96,21.74,16.85,49.18,31.47,55.27,60.1,.1,5.98-.68,14.8-5.1,22.27Z"/>
            <path class="cls-9" d="M167.22,311.15c-.54,1.02-1.6,2.76-2.97,4.92,23.48-58.97-21.67-79.07-35.55-90.04-13.6-10.76-29.29-19.6-33.45-36.67-2.64-10.84,2.35-22.35,5.18-27.66,.85-1.07,1.38-1.68,1.38-1.71,.03,1.69-.98,4.24-.79,8.02,.55,10.83,4.67,14.63,31.71,37.59,35.5,30.13,45.65,32.71,47.83,64.44,1.04,15.2-4.81,24.97-13.35,41.11Z"/>
            <g class="cls-10">
              <path class="cls-14" d="M164.25,316.07c2.82-7.28,4.92-14.87,5.83-22.61,.98-7.72,.6-15.64-1.53-23.1-2.08-7.49-6.01-14.37-11-20.29-5-5.95-11.06-10.92-17.42-15.41-3.17-2.26-6.43-4.4-9.63-6.69-1.6-1.15-3.13-2.38-4.66-3.57l-4.67-3.53c-6.22-4.7-12.59-9.4-17.73-15.4-2.56-2.99-4.78-6.3-6.38-9.9l-1.08-2.75c-.32-.93-.56-1.89-.84-2.83-.49-1.91-.8-3.88-.84-5.84-.09-1.97,.06-3.94,.35-5.88,.27-1.95,.71-3.86,1.27-5.74,1.09-3.77,2.65-7.38,4.5-10.82h0s1.4-1.7,1.4-1.7l-1.36,1.72h0c-1.78,3.47-3.26,7.11-4.26,10.87-.51,1.88-.91,3.79-1.14,5.72-.15,.96-.18,1.93-.26,2.9,0,.97-.06,1.94,.02,2.91,.06,1.94,.38,3.85,.89,5.72,.29,.92,.53,1.86,.86,2.78l1.09,2.69c1.61,3.52,3.83,6.75,6.39,9.66,5.14,5.83,11.43,10.52,17.68,15.18l4.69,3.52c1.56,1.2,3.08,2.41,4.66,3.54,3.16,2.26,6.46,4.38,9.64,6.66,6.38,4.54,12.49,9.59,17.54,15.64,5.03,6.03,9.04,13.03,11.04,20.67,2.07,7.6,2.37,15.61,1.28,23.37-1.07,7.77-3.34,15.32-6.3,22.55Z"/>
            </g>
            <path class="cls-8" d="M206.94,242.85c39.52-66.39,.91-99.6-10.2-108.08-10.37-7.91-32.9-20.91-46.75-41.21-9.81-14.39-4.76-35.29-.98-46.22,.32-.43,.5-.66,.5-.66,0,0-.14,3.18-.29,7.97,1.15,30.12,45.75,49.83,66.83,72.57,33.87,36.52,15.46,78.94-9.12,115.63Z"/>
            <g class="cls-10">
              <path class="cls-15" d="M206.94,242.85c4.85-8.31,9.02-17.03,12.07-26.15,3.1-9.08,4.97-18.62,4.93-28.2,0-9.57-2.04-19.15-6.2-27.76-4.14-8.62-10.22-16.25-17.47-22.48-3.6-3.14-7.57-5.85-11.51-8.62-3.94-2.76-7.88-5.54-11.72-8.45-3.85-2.91-7.59-5.96-11.16-9.21-3.57-3.25-7.01-6.65-10.12-10.35-.81-.9-1.52-1.88-2.29-2.81l-1.13-1.42-1.06-1.47-1.05-1.47-.53-.74-.47-.78c-.62-1.05-1.28-2.07-1.74-3.2-2.07-4.41-3.07-9.24-3.34-14.06-.24-4.83,.24-9.67,1.1-14.41,.86-4.74,2.17-9.39,3.77-13.93-1.52,4.57-2.75,9.23-3.53,13.97-.78,4.74-1.17,9.55-.86,14.33,.32,4.77,1.35,9.52,3.42,13.82,.46,1.1,1.12,2.1,1.73,3.11l.46,.76,.53,.73,1.06,1.45,1.06,1.45,1.13,1.4c.77,.92,1.49,1.88,2.3,2.77,6.32,7.22,13.57,13.57,21.25,19.34,3.83,2.89,7.77,5.65,11.72,8.4,3.94,2.75,7.95,5.47,11.62,8.65,3.66,3.17,7.03,6.69,10,10.51,2.96,3.83,5.55,7.96,7.63,12.34,4.18,8.75,6.27,18.48,6.15,28.15-.05,9.68-2.03,19.28-5.23,28.36-3.21,9.1-7.53,17.76-12.53,25.99Z"/>
            </g>
            <path class="cls-2" d="M185.65,101.97l-1.94,23.55-17.21,11.48c-2.41-2.02-4.79-4.03-7.09-6.03-11.49-10-21.12-19.84-24.69-30.25-8.32-24.17,13.81-52.76,14.78-54,.02-.03,.04-.04,.04-.04,0,0-.14,3.18-.29,7.97,.72,18.72,18.21,33.42,36.41,47.32Z"/>
            <path class="cls-1" d="M100.75,104.46s-.02,0-.03,0c-1.78,.09-3.53,.21-5.24,.38C28.01,111.35,7.61,177.4,38.99,236.66c4.18,7.9,10.64,15.05,18.32,21.9l-23.19,23c-8.15-7.98-15.91-17.7-23.14-30.44C-21.78,188.71,21.87,102.45,100.75,104.46Z"/>
            <path class="cls-5" d="M171.15,334.83c69.04-76.93,.21-125.91-61.35-178.43-3.7-3.16-7.5-6.32-11.33-9.49-14.91-12.36-30.34-24.95-42.41-38.6-9.4-10.62-16.76-21.87-20.27-34.14-6.82-23.84,4.81-52.74,19.95-71.75,0,0,0-.01,0-.01C56.41,1.59,57.07,.79,57.75,0c-15.04,18.29-1.44,48.25,15.3,68.56,12.09,14.66,26.59,27.35,41.56,39.72,7,5.79,14.1,11.51,21.11,17.32,23.38,19.43,47.68,39.08,64.04,64.43,29.77,46.13,11.12,109.73-28.61,144.8Z"/>
            <path class="cls-6" d="M178.01,328.27c81.53-97.89-33.1-167.76-60.39-191.73-28.37-24.91-60.43-42.21-68.74-71.96-7.42-26.6-2.76-45.36,2.86-56.78C53.67,5.04,55.68,2.42,57.75,0c-15.04,18.29-1.44,48.25,15.3,68.56,17.75,21.53,40.7,38.8,62.67,57.04,23.38,19.43,47.68,39.08,64.04,64.43,28,43.39,13.17,102.22-21.74,138.24Z"/>
            <g class="cls-10">
              <path class="cls-16" d="M178.01,328.27c5.2-6.31,9.98-12.99,14.11-20.04l1.54-2.65,1.44-2.71c.99-1.79,1.8-3.67,2.71-5.5,1.64-3.74,3.22-7.51,4.41-11.42l.47-1.46,.41-1.47c.27-.98,.56-1.96,.81-2.95,.45-1.99,.95-3.97,1.27-5.98,.4-2,.62-4.03,.88-6.05,.17-2.03,.37-4.06,.4-6.1,.29-8.15-.74-16.33-2.81-24.21-4.22-15.8-12.61-30.2-22.78-42.93-10.18-12.78-22.12-24.06-34.65-34.54-6.27-5.24-12.68-10.32-19.11-15.38-3.21-2.54-6.43-5.07-9.53-7.77-3.07-2.7-6.19-5.33-9.36-7.92-6.32-5.18-12.8-10.18-19.21-15.28-6.4-5.1-12.74-10.31-18.65-16-5.89-5.69-11.37-11.91-15.58-18.99-2.1-3.53-3.87-7.27-5.21-11.16-.34-.97-.61-1.96-.92-2.94l-.77-2.98c-.54-1.98-.92-4-1.34-6-.74-4.03-1.35-8.1-1.54-12.2-.24-4.09-.23-8.21,.18-12.29,.76-8.16,2.87-16.22,6.51-23.56h0s0,0,0,0c1.89-2.68,3.9-5.29,6.04-7.77-2.12,2.51-4.1,5.13-5.96,7.83h0c-3.56,7.36-5.59,15.42-6.26,23.55-.37,4.07-.33,8.16-.06,12.23,.24,4.07,.85,8.12,1.61,12.13,.43,2,.81,4,1.36,5.97l.77,2.96c.31,.97,.58,1.95,.92,2.91,1.33,3.85,3.1,7.54,5.2,11.03,4.19,7,9.65,13.16,15.53,18.8,5.9,5.65,12.24,10.81,18.65,15.89,6.41,5.07,12.91,10.05,19.27,15.22,3.18,2.58,6.32,5.22,9.4,7.91,3.08,2.66,6.31,5.18,9.52,7.71,6.44,5.05,12.91,10.07,19.16,15.36,12.52,10.55,24.47,21.91,34.66,34.79,10.17,12.82,18.58,27.34,22.77,43.27,2.05,7.95,3.07,16.19,2.75,24.39-.04,2.05-.24,4.1-.42,6.14-.27,2.03-.5,4.08-.91,6.09-.33,2.03-.84,4.02-1.3,6.02-.26,.99-.55,1.98-.83,2.96-.26,.99-.58,1.97-.92,2.94-1.24,3.91-2.85,7.69-4.54,11.42-.92,1.83-1.75,3.71-2.77,5.49l-1.47,2.7-1.56,2.64c-4.21,7.03-9.05,13.66-14.32,19.92Z"/>
            </g>
            <path class="cls-3" d="M114.61,108.28l-5.05,12.81-11.08,25.83c-14.91-12.36-30.34-24.95-42.41-38.6-9.4-10.62-16.76-21.87-20.27-34.14-6.82-23.84,4.81-52.74,19.95-71.75,0,0,0-.01,0-.01C56.41,1.59,57.07,.79,57.75,0c-15.04,18.29-1.44,48.25,15.3,68.56,12.09,14.66,26.59,27.35,41.56,39.72Z"/>
            <g class="cls-10">
              <path class="cls-13" d="M146.4,342.27v-.22s0,0,0,0h0s0,0,0,0c2.42-5.66,4.27-11.6,4.9-17.71,.65-6.09,.17-12.32-1.7-18.15-1.84-5.83-4.85-11.26-8.66-16.03-3.81-4.78-8.35-8.97-13.29-12.6-2.45-1.84-5.04-3.49-7.63-5.16l-7.77-5.01c-5.15-3.4-10.27-6.88-14.97-10.92-2.33-2.03-4.59-4.18-6.52-6.63-.95-1.23-1.83-2.54-2.47-3.98-.68-1.42-.99-2.99-1.19-4.53-.17-1.56-.09-3.12,.07-4.66,.22-1.54,.51-3.06,.95-4.55,.85-2.98,2.07-5.83,3.54-8.54-1.38,2.76-2.51,5.64-3.29,8.61-.4,1.48-.65,3-.83,4.52-.12,1.52-.16,3.06,.04,4.56,.22,1.5,.54,3,1.21,4.35,.64,1.37,1.5,2.63,2.45,3.82,1.92,2.37,4.18,4.46,6.52,6.43,4.74,3.9,9.81,7.39,14.97,10.74l7.79,4.97c2.6,1.65,5.22,3.31,7.71,5.16,4.98,3.69,9.56,7.96,13.41,12.83,3.84,4.87,6.93,10.4,8.69,16.37,.9,2.97,1.47,6.05,1.69,9.15,.21,3.09,.19,6.21-.23,9.28-.42,3.07-1.05,6.11-2.01,9.05-.87,2.97-2.09,5.81-3.37,8.61h0s0,0,0,0h0s-.02,.22-.02,.22Z"/>
            </g>
          </g>
          <g>
            <rect class="cls-18" x="282.33" y="225.01" width="531.64" height="49.3"/>
            <g>
              <path class="cls-5" d="M301.99,293.17l-6.97,13.42v7.64h-3.45v-7.64l-7-13.42h3.85l4.88,10.33,4.88-10.33h3.82Z"/>
              <path class="cls-5" d="M321.34,313.06c-1.65-.92-2.95-2.2-3.91-3.85-.96-1.65-1.44-3.5-1.44-5.56s.48-3.91,1.44-5.54c.96-1.64,2.26-2.91,3.91-3.83,1.65-.92,3.45-1.38,5.41-1.38s3.79,.46,5.44,1.38c1.65,.92,2.94,2.2,3.89,3.83,.95,1.64,1.42,3.48,1.42,5.54s-.47,3.91-1.42,5.56c-.95,1.65-2.25,2.93-3.89,3.85-1.65,.92-3.46,1.38-5.44,1.38s-3.76-.46-5.41-1.38Zm9.13-2.58c1.09-.64,1.94-1.54,2.56-2.73s.92-2.55,.92-4.11-.31-2.92-.92-4.09c-.62-1.17-1.47-2.07-2.56-2.7s-2.33-.94-3.73-.94-2.64,.31-3.73,.94-1.94,1.53-2.56,2.7c-.62,1.17-.92,2.54-.92,4.09s.31,2.92,.92,4.11,1.47,2.09,2.56,2.73c1.09,.64,2.33,.96,3.73,.96s2.64-.32,3.73-.96Z"/>
              <path class="cls-5" d="M356.74,293.17v13.42c0,1.6,.42,2.8,1.26,3.61,.84,.81,2,1.21,3.5,1.21s2.69-.4,3.53-1.21c.84-.81,1.26-2.01,1.26-3.61v-13.42h3.45v13.36c0,1.72-.37,3.17-1.12,4.36-.75,1.19-1.75,2.08-3,2.67-1.25,.59-2.64,.88-4.15,.88s-2.89-.29-4.14-.88c-1.24-.58-2.23-1.47-2.95-2.67-.73-1.19-1.09-2.65-1.09-4.36v-13.36h3.45Z"/>
              <path class="cls-5" d="M397.58,314.22l-4.85-8.42h-2.64v8.42h-3.45v-21.06h7.27c1.62,0,2.98,.28,4.11,.85s1.96,1.32,2.51,2.27,.83,2.01,.83,3.18c0,1.37-.4,2.62-1.2,3.74s-2.03,1.88-3.68,2.29l5.21,8.73h-4.12Zm-7.48-11.18h3.82c1.29,0,2.27-.32,2.92-.97s.99-1.52,.99-2.61-.32-1.94-.97-2.56c-.65-.62-1.63-.92-2.94-.92h-3.82v7.06Z"/>
              <path class="cls-5" d="M451.29,294.45c1.69,.86,2.99,2.09,3.91,3.7,.92,1.61,1.38,3.48,1.38,5.62s-.46,4-1.38,5.58c-.92,1.58-2.22,2.78-3.91,3.62-1.69,.84-3.65,1.26-5.89,1.26h-6.88v-21.06h6.88c2.24,0,4.21,.43,5.89,1.29Zm-.23,14.95c1.31-1.33,1.97-3.21,1.97-5.64s-.66-4.35-1.97-5.73c-1.31-1.37-3.2-2.06-5.67-2.06h-3.42v15.42h3.42c2.46,0,4.35-.67,5.67-2Z"/>
              <path class="cls-5" d="M475.88,293.17v21.06h-3.45v-21.06h3.45Z"/>
              <path class="cls-5" d="M508.08,299.23c-.54-1.05-1.3-1.84-2.27-2.38s-2.09-.8-3.36-.8c-1.39,0-2.64,.31-3.73,.94-1.09,.63-1.94,1.52-2.56,2.67-.62,1.15-.92,2.48-.92,4s.31,2.85,.92,4.01c.62,1.16,1.47,2.06,2.56,2.68s2.33,.94,3.73,.94c1.88,0,3.4-.52,4.58-1.58,1.17-1.05,1.89-2.47,2.15-4.27h-7.91v-2.76h11.6v2.7c-.22,1.64-.8,3.14-1.74,4.51-.94,1.37-2.16,2.47-3.67,3.29-1.5,.82-3.18,1.23-5.01,1.23-1.98,0-3.79-.46-5.42-1.38-1.64-.92-2.93-2.2-3.89-3.83-.96-1.64-1.44-3.48-1.44-5.54s.48-3.91,1.44-5.54c.96-1.64,2.26-2.91,3.91-3.83,1.65-.92,3.45-1.38,5.41-1.38,2.24,0,4.24,.55,5.98,1.65,1.75,1.1,3.01,2.66,3.8,4.68h-4.15Z"/>
              <path class="cls-5" d="M532.14,293.17v21.06h-3.45v-21.06h3.45Z"/>
              <path class="cls-5" d="M562.71,293.17v2.82h-5.61v18.24h-3.45v-18.24h-5.64v-2.82h14.7Z"/>
              <path class="cls-5" d="M591.31,309.92h-8.82l-1.51,4.3h-3.61l7.54-21.09h4l7.54,21.09h-3.64l-1.51-4.3Zm-.97-2.82l-3.42-9.79-3.45,9.79h6.88Z"/>
              <path class="cls-5" d="M615.61,311.44h7.12v2.79h-10.57v-21.06h3.45v18.27Z"/>
              <path class="cls-5" d="M675.15,293.17v21.06h-3.45v-9.21h-9.91v9.21h-3.45v-21.06h3.45v9.03h9.91v-9.03h3.45Z"/>
              <path class="cls-5" d="M704.81,309.92h-8.82l-1.51,4.3h-3.61l7.54-21.09h4l7.54,21.09h-3.64l-1.51-4.3Zm-.97-2.82l-3.42-9.79-3.45,9.79h6.88Z"/>
              <path class="cls-5" d="M738.43,294.45c1.69,.86,2.99,2.09,3.91,3.7,.92,1.61,1.38,3.48,1.38,5.62s-.46,4-1.38,5.58c-.92,1.58-2.22,2.78-3.91,3.62-1.69,.84-3.65,1.26-5.89,1.26h-6.88v-21.06h6.88c2.24,0,4.21,.43,5.89,1.29Zm-.23,14.95c1.31-1.33,1.97-3.21,1.97-5.64s-.66-4.35-1.97-5.73c-1.31-1.37-3.2-2.06-5.67-2.06h-3.42v15.42h3.42c2.46,0,4.35-.67,5.67-2Z"/>
              <path class="cls-5" d="M763.02,293.17v21.06h-3.45v-21.06h3.45Z"/>
            </g>
            <g>
              <path class="cls-18" d="M282.33,119.07h30.19v32.21h64.78v-32.21h30.19v88.42h-30.19v-34.82h-64.78v34.82h-30.19V119.07Z"/>
              <path class="cls-18" d="M514.25,190.41v17.83h-22.19c-5.97,0-9.44-3.01-10.42-9.03-2.04,2.52-5.52,4.86-10.42,7.02-4.91,2.16-11.61,3.24-20.11,3.24h-1.59c-10.38,0-18.08-2.04-23.11-6.1-5.03-4.07-7.54-9.2-7.54-15.39v-.85c0-6.03,2.15-10.58,6.44-13.68,4.29-3.09,11.38-5.09,21.28-5.98l30.17-2.81c2.78-.33,4.17-1.47,4.17-3.42,0-1.06-.27-1.91-.8-2.56-.53-.65-2.15-1.28-4.84-1.89-2.7-.61-6.54-.92-11.53-.92l-44.88,.07v-15.21h47.7c7.36,0,13.65,.45,18.88,1.34,5.23,.9,9.24,1.99,12.02,3.3,2.78,1.3,4.95,2.99,6.5,5.07,1.55,2.08,2.49,3.93,2.82,5.56,.33,1.63,.49,3.62,.49,5.98v25.15c0,2.2,1.14,3.29,3.43,3.29h3.56Zm-33.35-13.43l-26.12,4.03c-3.68,.57-6.25,1.28-7.72,2.14-1.47,.85-2.21,2.18-2.21,3.97v.12c0,2.03,.94,3.79,2.82,5.25,1.88,1.46,4.95,2.2,9.2,2.2,7.03,0,12.79-1.59,17.29-4.76,4.5-3.17,6.74-6.8,6.74-10.87v-2.08Z"/>
              <path class="cls-18" d="M772.07,117.16v89.19h-26.73v-9.83c-.64,.88-1.65,1.86-3.01,2.94-1.37,1.08-3.29,2.3-5.78,3.66-2.49,1.36-5.78,2.5-9.87,3.42-1.67,.37-3.39,.67-5.18,.89-2.6,.32-152.94,.48-155.8,.48h-1.57c-13.64,0-23.86-3.1-30.64-9.29-6.78-6.19-10.17-14.16-10.17-23.91v-2.28c0-9.43,3.21-17.14,9.63-23.14,6.42-5.99,16.45-8.99,30.1-8.99h1.93c2.6,0,152.72,.12,155.11,.36,10.35,1.03,18.69,4.31,25.01,9.83v-33.32h26.97Zm-26.96,57.06v-.48c0-4.48-2.21-8.35-6.62-11.63-4.42-3.28-10.39-4.92-17.94-4.92h-.6c-2.78,0-152.88,.2-155.09,.6-3.98,.72-7.02,2.08-9.14,4.08-3.29,3.12-4.94,7.07-4.94,11.87v.48c0,4.47,1.81,8.37,5.42,11.69,2.23,2.05,5.16,3.46,8.8,4.25,2.25,.49,152.39,.73,155.19,.73h.6c7.54,0,13.48-1.66,17.82-4.97,4.33-3.32,6.5-7.21,6.5-11.69h0Z"/>
              <path class="cls-18" d="M813.97,137.14h-28.87v-18.29h28.87v18.29Zm0,70.06h-28.87v-63.89h28.87v63.89Z"/>
            </g>
            <g>
              <path class="cls-17" d="M301.93,241.9v5.97h9.62v5.55h-9.62v6.47h10.88v5.76h-18.07v-29.5h18.07v5.76h-10.88Z"/>
              <path class="cls-17" d="M345.34,260.1h9.41v5.55h-16.6v-29.5h7.19v23.96Z"/>
              <path class="cls-17" d="M371.27,241.9v5.97h9.62v5.55h-9.62v6.47h10.88v5.76h-18.07v-29.5h18.07v5.76h-10.88Z"/>
              <path class="cls-17" d="M411.07,260.44h-11.01l-1.76,5.21h-7.52l10.67-29.5h8.32l10.67,29.5h-7.61l-1.76-5.21Zm-1.85-5.55l-3.66-10.8-3.61,10.8h7.27Z"/>
              <path class="cls-17" d="M444.6,265.65l-6.14-11.14h-1.72v11.14h-7.19v-29.5h12.06c2.33,0,4.31,.41,5.95,1.22,1.64,.81,2.86,1.93,3.68,3.34,.81,1.42,1.22,2.99,1.22,4.73,0,1.96-.55,3.71-1.66,5.25-1.11,1.54-2.74,2.63-4.9,3.28l6.81,11.68h-8.11Zm-7.86-16.22h4.46c1.32,0,2.3-.32,2.96-.97s.99-1.55,.99-2.73-.33-2-.99-2.65-1.65-.97-2.96-.97h-4.46v7.31Z"/>
              <path class="cls-17" d="M489.23,265.65h-7.19l-12.02-18.2v18.2h-7.19v-29.5h7.19l12.02,18.28v-18.28h7.19v29.5Z"/>
              <path class="cls-17" d="M507.51,236.15v29.5h-7.19v-29.5h7.19Z"/>
              <path class="cls-17" d="M545,265.65h-7.19l-12.02-18.2v18.2h-7.19v-29.5h7.19l12.02,18.28v-18.28h7.19v29.5Z"/>
              <path class="cls-17" d="M575.68,245.48c-.53-.98-1.3-1.73-2.29-2.25-1-.52-2.17-.78-3.51-.78-2.33,0-4.19,.76-5.59,2.29-1.4,1.53-2.1,3.57-2.1,6.11,0,2.72,.74,4.84,2.21,6.37,1.47,1.53,3.5,2.29,6.07,2.29,1.76,0,3.26-.45,4.48-1.34s2.11-2.19,2.67-3.87h-9.12v-5.29h15.63v6.68c-.53,1.79-1.44,3.46-2.71,5-1.28,1.54-2.89,2.79-4.85,3.74-1.96,.95-4.18,1.43-6.64,1.43-2.91,0-5.51-.64-7.8-1.91-2.28-1.27-4.06-3.05-5.34-5.32-1.28-2.27-1.91-4.86-1.91-7.77s.64-5.51,1.91-7.8c1.27-2.28,3.05-4.06,5.32-5.34,2.27-1.27,4.86-1.91,7.77-1.91,3.53,0,6.51,.85,8.93,2.56,2.42,1.71,4.03,4.08,4.81,7.1h-7.94Z"/>
              <path class="cls-17" d="M613.67,264.89c-1.71-.7-3.08-1.74-4.1-3.11-1.02-1.37-1.56-3.03-1.62-4.96h7.65c.11,1.09,.49,1.93,1.13,2.5,.64,.58,1.48,.86,2.52,.86s1.9-.25,2.52-.74c.62-.49,.92-1.17,.92-2.04,0-.73-.25-1.33-.74-1.81s-1.09-.87-1.81-1.18c-.71-.31-1.73-.66-3.05-1.05-1.91-.59-3.46-1.18-4.67-1.76-1.21-.59-2.24-1.46-3.11-2.61-.87-1.15-1.3-2.65-1.3-4.5,0-2.75,1-4.9,2.98-6.45s4.58-2.33,7.77-2.33,5.87,.78,7.86,2.33c1.99,1.55,3.05,3.72,3.19,6.49h-7.77c-.06-.95-.41-1.7-1.05-2.25-.64-.55-1.47-.82-2.48-.82-.87,0-1.57,.23-2.1,.69-.53,.46-.8,1.13-.8,2,0,.95,.45,1.7,1.34,2.23,.9,.53,2.3,1.11,4.2,1.72,1.91,.64,3.45,1.26,4.64,1.85,1.19,.59,2.22,1.44,3.09,2.56,.87,1.12,1.3,2.56,1.3,4.33s-.43,3.21-1.28,4.58c-.86,1.37-2.09,2.46-3.72,3.28-1.62,.81-3.54,1.22-5.76,1.22s-4.09-.35-5.8-1.05Z"/>
              <path class="cls-17" d="M665.82,236.15l-10.21,19.75v9.75h-7.19v-9.75l-10.21-19.75h8.15l5.71,12.36,5.67-12.36h8.07Z"/>
              <path class="cls-17" d="M679.48,264.89c-1.71-.7-3.08-1.74-4.1-3.11-1.02-1.37-1.56-3.03-1.62-4.96h7.65c.11,1.09,.49,1.93,1.13,2.5,.64,.58,1.48,.86,2.52,.86s1.9-.25,2.52-.74c.62-.49,.92-1.17,.92-2.04,0-.73-.25-1.33-.74-1.81s-1.09-.87-1.81-1.18c-.71-.31-1.73-.66-3.05-1.05-1.91-.59-3.46-1.18-4.67-1.76-1.21-.59-2.24-1.46-3.11-2.61-.87-1.15-1.3-2.65-1.3-4.5,0-2.75,1-4.9,2.98-6.45s4.58-2.33,7.77-2.33,5.87,.78,7.86,2.33c1.99,1.55,3.05,3.72,3.19,6.49h-7.77c-.06-.95-.41-1.7-1.05-2.25-.64-.55-1.47-.82-2.48-.82-.87,0-1.57,.23-2.1,.69-.53,.46-.8,1.13-.8,2,0,.95,.45,1.7,1.34,2.23,.9,.53,2.3,1.11,4.2,1.72,1.91,.64,3.45,1.26,4.64,1.85,1.19,.59,2.22,1.44,3.09,2.56,.87,1.12,1.3,2.56,1.3,4.33s-.43,3.21-1.28,4.58c-.86,1.37-2.09,2.46-3.72,3.28-1.62,.81-3.54,1.22-5.76,1.22s-4.09-.35-5.8-1.05Z"/>
              <path class="cls-17" d="M727.56,236.15v5.76h-7.82v23.74h-7.19v-23.74h-7.82v-5.76h22.82Z"/>
              <path class="cls-17" d="M744.24,241.9v5.97h9.62v5.55h-9.62v6.47h10.88v5.76h-18.07v-29.5h18.07v5.76h-10.88Z"/>
              <path class="cls-17" d="M799.08,236.15v29.5h-7.19v-17.69l-6.6,17.69h-5.8l-6.64-17.73v17.73h-7.19v-29.5h8.49l8.28,20.42,8.19-20.42h8.45Z"/>
            </g>
          </g>
        </g>
      </g>
    </g>
  </g>
</svg>