<?xml version="1.0" encoding="UTF-8"?>
<svg xmlns="http://www.w3.org/2000/svg" xmlns:xlink="http://www.w3.org/1999/xlink" viewBox="0 0 232.63 367.78">
  <defs>
    <style>
      .cls-1 {
        fill: url(#radial-gradient-2);
      }

      .cls-1, .cls-2, .cls-3 {
        mix-blend-mode: color-dodge;
      }

      .cls-1, .cls-3 {
        opacity: .7;
      }

      .cls-4 {
        fill: url(#linear-gradient-2);
      }

      .cls-5 {
        fill: url(#linear-gradient-14);
      }

      .cls-6 {
        fill: url(#linear-gradient-6);
      }

      .cls-7 {
        isolation: isolate;
      }

      .cls-8 {
        fill: url(#linear-gradient-11);
      }

      .cls-2 {
        fill: url(#radial-gradient);
      }

      .cls-9 {
        fill: url(#linear-gradient-10);
      }

      .cls-10 {
        fill: url(#linear-gradient-5);
      }

      .cls-11 {
        fill: url(#linear-gradient-7);
      }

      .cls-3 {
        fill: url(#radial-gradient-3);
      }

      .cls-12 {
        fill: url(#linear-gradient-9);
      }

      .cls-13 {
        fill: url(#linear-gradient-3);
      }

      .cls-14 {
        fill: url(#linear-gradient);
      }

      .cls-15 {
        fill: url(#linear-gradient-4);
      }

      .cls-16 {
        fill: url(#linear-gradient-8);
      }

      .cls-17 {
        fill: url(#linear-gradient-12);
      }

      .cls-18 {
        fill: url(#linear-gradient-13);
      }
    </style>
    <linearGradient id="linear-gradient" x1="158.98" y1="355.72" x2="-2.37" y2="76.26" gradientUnits="userSpaceOnUse">
      <stop offset="0" stop-color="#00857f"/>
      <stop offset=".98" stop-color="#002f55"/>
    </linearGradient>
    <linearGradient id="linear-gradient-2" x1="182.83" y1="346.54" x2="10.11" y2="47.36" gradientUnits="userSpaceOnUse">
      <stop offset="0" stop-color="#00857f"/>
      <stop offset=".79" stop-color="#002f55"/>
    </linearGradient>
    <linearGradient id="linear-gradient-3" x1="232.55" y1="230.02" x2="119.37" y2="33.98" xlink:href="#linear-gradient"/>
    <linearGradient id="linear-gradient-4" x1="162.83" y1="353.3" x2="32.49" y2="127.55" gradientUnits="userSpaceOnUse">
      <stop offset="0" stop-color="#56e9de" stop-opacity="0"/>
      <stop offset=".24" stop-color="#01aa7a"/>
      <stop offset=".63" stop-color="#005861" stop-opacity=".34"/>
      <stop offset=".85" stop-color="#002f55" stop-opacity="0"/>
    </linearGradient>
    <linearGradient id="linear-gradient-5" x1="162.63" y1="353.41" x2="31.99" y2="127.14" gradientUnits="userSpaceOnUse">
      <stop offset="0" stop-color="#ceffff"/>
      <stop offset=".24" stop-color="#c6ffff"/>
      <stop offset=".36" stop-color="#9cd3db" stop-opacity=".79"/>
      <stop offset=".7" stop-color="#2d5e7b" stop-opacity=".23"/>
      <stop offset=".85" stop-color="#002f55" stop-opacity="0"/>
    </linearGradient>
    <linearGradient id="linear-gradient-6" x1="159.5" y1="331.18" x2="94.94" y2="219.35" gradientUnits="userSpaceOnUse">
      <stop offset="0" stop-color="#56e9de"/>
      <stop offset=".24" stop-color="#01aa7a"/>
      <stop offset=".63" stop-color="#005861" stop-opacity=".34"/>
      <stop offset=".85" stop-color="#002f55" stop-opacity="0"/>
    </linearGradient>
    <linearGradient id="linear-gradient-7" x1="182.01" y1="302.42" x2="99.5" y2="159.51" xlink:href="#linear-gradient-6"/>
    <linearGradient id="linear-gradient-8" x1="175.54" y1="306.61" x2="92.67" y2="163.07" xlink:href="#linear-gradient-5"/>
    <linearGradient id="linear-gradient-9" x1="234.3" y1="224.06" x2="135.83" y2="53.49" xlink:href="#linear-gradient-6"/>
    <linearGradient id="linear-gradient-10" x1="227.57" y1="228.45" x2="128.84" y2="57.45" xlink:href="#linear-gradient-5"/>
    <radialGradient id="radial-gradient" cx="215.03" cy="94" fx="215.03" fy="94" r="95.76" gradientUnits="userSpaceOnUse">
      <stop offset=".66" stop-color="#000"/>
      <stop offset="1" stop-color="#ffffc8"/>
    </radialGradient>
    <radialGradient id="radial-gradient-2" cx="155.78" cy="242.35" fx="155.78" fy="242.35" r="186.46" gradientUnits="userSpaceOnUse">
      <stop offset=".71" stop-color="#000"/>
      <stop offset="1" stop-color="#ffffc8"/>
    </radialGradient>
    <linearGradient id="linear-gradient-11" x1="211.51" y1="307.94" x2="39.61" y2="10.2" xlink:href="#linear-gradient"/>
    <linearGradient id="linear-gradient-12" x1="214.36" y1="303.72" x2="43.57" y2="7.91" xlink:href="#linear-gradient-6"/>
    <linearGradient id="linear-gradient-13" x1="207.55" y1="308.2" x2="36.29" y2="11.57" xlink:href="#linear-gradient-5"/>
    <radialGradient id="radial-gradient-3" cx="173.57" cy="80.79" fx="173.57" fy="80.79" r="151.11" xlink:href="#radial-gradient-2"/>
    <linearGradient id="linear-gradient-14" x1="154.18" y1="334.58" x2="89.28" y2="222.19" xlink:href="#linear-gradient-5"/>
  </defs>
  <g class="cls-7">
    <g id="Layer_2" data-name="Layer 2">
      <g id="Layer_1-2" data-name="Layer 1">
        <g>
          <path class="cls-14" d="M138.26,366.67c-.05,.37-.11,.74-.17,1.12-35.3-53.06-72.75-57.72-104.25-88.55-8.08-7.92-15.78-17.56-22.95-30.19C-21.6,187.15,21.69,101.6,99.91,103.59c-.01,0-.02,0-.03,0-1.77,.09-3.5,.21-5.2,.38C27.78,110.43,7.55,175.93,38.67,234.71c4.15,7.83,10.55,14.92,18.17,21.72,33.29,29.75,89.7,53.97,81.43,110.24Z"/>
          <path class="cls-4" d="M165.84,308.58c8.46-16.01,14.27-25.7,13.24-40.77-2.16-31.47-12.23-34.03-47.43-63.91-26.82-22.77-30.91-26.54-31.45-37.28-.19-3.75,.81-6.28,.78-7.96-.05,.16-15.43,17.83-17.17,31.73-5.19,41.33,82.58,54.59,77.18,111.64-6.03-28.42-33.25-42.93-54.82-59.64-16.88-13.08-15.13-20.78-15.13-20.78,0,0-22.87,24.81-6.62,39.38,26.54,23.79,63.59,40.23,60.79,78.44,3.16-3.95,18.03-25.91,20.64-30.86Z"/>
          <path class="cls-13" d="M215.76,208.65c3.72-29.77-25.68-51.91-50.64-72.78-2.39-2-4.75-3.99-7.03-5.98-11.39-9.92-20.94-19.68-24.49-30-8.25-23.97,13.69-52.32,14.66-53.55,.02-.03,.04-.04,.04-.04,0,0-.14,3.16-.28,7.91,.71,18.57,18.06,33.14,36.11,46.93,11,8.4,22.26,16.51,30.17,25.04,36.15,38.97,12.24,84.74-14.7,122.88,10.51-15.45,16.01-39.06,16.18-40.4Z"/>
          <path class="cls-15" d="M138.26,366.67c-.06,.31-.12,.61-.18,.92-15.15-47.29-48.37-61.99-76.55-82.69C-18.02,234,2.25,106.66,94.68,103.98,27.78,110.43,7.55,175.93,38.67,234.71c22.28,42.08,109.76,62.82,99.59,131.96Z"/>
          <path class="cls-10" d="M138.08,367.59c-2.51-7.05-5.17-14.08-8.9-20.58l-1.33-2.47c-.46-.81-.99-1.58-1.48-2.38-1.01-1.57-1.99-3.17-3.03-4.72l-3.34-4.5-.83-1.13-.91-1.07-1.82-2.13c-4.87-5.67-10.23-10.91-16.05-15.61-5.78-4.74-11.87-9.1-18.05-13.32-6.18-4.22-12.45-8.34-18.54-12.7l-2.29-1.63-2.34-1.56c-1.58-1.01-3.08-2.15-4.6-3.24-2.99-2.27-5.92-4.63-8.67-7.2-5.55-5.07-10.5-10.79-14.86-16.92-4.3-6.17-8-12.77-10.92-19.7-5.82-13.88-8.7-28.97-8.44-44,.26-15.02,3.68-30.05,10.43-43.49,6.71-13.44,16.99-25.18,29.79-33.09,3.19-1.98,6.53-3.73,9.98-5.2,1.71-.79,3.48-1.4,5.23-2.07,1.78-.58,3.55-1.2,5.37-1.67,7.22-2.05,14.72-2.98,22.19-3.22-7.48,.32-14.95,1.33-22.13,3.45-1.81,.48-3.57,1.12-5.34,1.72-1.74,.69-3.5,1.32-5.19,2.12-3.42,1.5-6.72,3.28-9.87,5.28-12.68,7.92-22.85,19.6-29.45,32.97-6.66,13.37-9.98,28.3-10.19,43.21-.21,14.92,2.71,29.87,8.52,43.6,2.87,6.88,6.51,13.43,10.75,19.57,4.3,6.09,9.18,11.78,14.68,16.83,2.71,2.56,5.61,4.92,8.58,7.18,1.51,1.09,2.99,2.23,4.57,3.24l2.33,1.57,2.28,1.64c6.07,4.39,12.31,8.51,18.49,12.77,6.17,4.25,12.26,8.64,18.04,13.42,5.82,4.74,11.2,10.02,16.05,15.74l1.8,2.16,.9,1.08,.83,1.14,3.3,4.56c1.03,1.56,1.99,3.18,2.99,4.76,.48,.8,1.01,1.58,1.46,2.4l1.31,2.49c3.67,6.55,6.25,13.62,8.69,20.7Z"/>
          <path class="cls-6" d="M155.91,324.09c-4.5,6.7-9.12,13.35-10.72,15.35,0-.08,.01-.14,.01-.22,0,0,0,0,0,0,17.57-38.42-12.24-60.48-22.13-67.01-10.05-6.63-29.98-18.07-35.02-27.9-4.06-7.93,.8-18.69,2.84-22.56,.08-.09,.12-.13,.12-.13,0,0-1.74,7.71,15.13,20.78,21.56,16.71,48.77,31.21,54.82,59.6,.1,5.93-.67,14.67-5.06,22.09Z"/>
          <path class="cls-11" d="M165.83,308.58c-.54,1.02-1.58,2.74-2.94,4.88,23.29-58.49-21.49-78.41-35.26-89.3-13.49-10.67-29.05-19.44-33.17-36.37-2.62-10.76,2.33-22.16,5.14-27.43,.85-1.06,1.37-1.67,1.37-1.7,.03,1.67-.97,4.21-.78,7.95,.54,10.74,4.63,14.51,31.45,37.28,35.2,29.88,45.27,32.44,47.43,63.91,1.03,15.08-4.77,24.76-13.24,40.77Z"/>
          <path class="cls-16" d="M162.89,313.46c2.79-7.22,4.88-14.75,5.78-22.42,.97-7.65,.59-15.51-1.52-22.91-2.06-7.42-5.96-14.25-10.91-20.12-4.96-5.9-10.97-10.83-17.28-15.28-3.15-2.25-6.38-4.37-9.55-6.64-1.59-1.14-3.1-2.36-4.62-3.54l-4.63-3.5c-6.17-4.66-12.48-9.33-17.58-15.27-2.54-2.96-4.74-6.24-6.33-9.82l-1.07-2.73c-.31-.92-.55-1.87-.83-2.81-.49-1.89-.79-3.84-.83-5.8-.09-1.95,.06-3.91,.35-5.83,.27-1.93,.71-3.83,1.26-5.69,1.08-3.73,2.63-7.32,4.46-10.73h0s1.39-1.69,1.39-1.69l-1.35,1.71h0c-1.77,3.44-3.23,7.05-4.23,10.78-.51,1.86-.9,3.76-1.13,5.67-.15,.95-.18,1.92-.26,2.88,0,.96-.06,1.92,.02,2.88,.06,1.92,.38,3.82,.88,5.67,.29,.92,.53,1.85,.85,2.75l1.08,2.67c1.6,3.49,3.8,6.69,6.33,9.58,5.1,5.78,11.34,10.43,17.54,15.05l4.66,3.49c1.54,1.19,3.06,2.39,4.62,3.51,3.14,2.24,6.4,4.34,9.56,6.61,6.32,4.5,12.39,9.51,17.39,15.51,4.99,5.98,8.97,12.93,10.95,20.5,2.06,7.54,2.35,15.49,1.27,23.18-1.06,7.71-3.31,15.2-6.25,22.36Z"/>
          <path class="cls-12" d="M205.23,240.84c39.2-65.84,.9-98.78-10.12-107.19-10.29-7.85-32.63-20.74-46.36-40.87-9.73-14.27-4.72-35-.97-45.84,.32-.43,.5-.65,.5-.65,0,0-.14,3.16-.28,7.91,1.14,29.87,45.37,49.42,66.28,71.97,33.59,36.21,15.33,78.29-9.05,114.67Z"/>
          <path class="cls-9" d="M205.23,240.84c4.81-8.24,8.95-16.89,11.96-25.93,3.07-9,4.93-18.47,4.88-27.97,0-9.49-2.02-18.99-6.15-27.53-4.1-8.55-10.14-16.12-17.33-22.29-3.58-3.12-7.51-5.8-11.41-8.55-3.91-2.73-7.82-5.49-11.63-8.38-7.61-5.78-14.88-12.1-21.11-19.4-.8-.89-1.51-1.86-2.27-2.79l-1.12-1.41-1.05-1.46-1.05-1.46-.52-.73-.46-.78c-.61-1.04-1.27-2.05-1.73-3.17-2.05-4.37-3.04-9.16-3.31-13.94-.24-4.79,.24-9.59,1.09-14.29,.85-4.7,2.16-9.31,3.74-13.82-1.5,4.53-2.72,9.15-3.5,13.86-.77,4.7-1.16,9.47-.85,14.22,.32,4.73,1.34,9.44,3.39,13.7,.45,1.09,1.11,2.08,1.72,3.09l.46,.76,.52,.72,1.05,1.44,1.05,1.44,1.12,1.39c.76,.91,1.47,1.86,2.28,2.74,6.27,7.16,13.46,13.46,21.07,19.18,3.8,2.87,7.7,5.61,11.62,8.33,3.91,2.73,7.89,5.42,11.52,8.57,3.63,3.15,6.97,6.63,9.92,10.42,2.94,3.8,5.5,7.9,7.57,12.24,4.15,8.68,6.21,18.32,6.1,27.92-.05,9.6-2.01,19.12-5.19,28.13-3.18,9.02-7.47,17.62-12.42,25.77Z"/>
          <path class="cls-2" d="M184.11,101.13l-1.93,23.35-17.07,11.38c-2.39-2-4.75-3.99-7.03-5.98-11.39-9.92-20.94-19.68-24.49-30-8.25-23.97,13.69-52.32,14.66-53.55,.02-.03,.04-.04,.04-.04,0,0-.14,3.16-.28,7.91,.71,18.57,18.06,33.14,36.11,46.93Z"/>
          <path class="cls-1" d="M99.91,103.59s-.02,0-.03,0c-1.77,.09-3.5,.21-5.2,.38C27.78,110.43,7.55,175.93,38.67,234.71c4.15,7.83,10.55,14.92,18.17,21.72l-22.99,22.81c-8.08-7.92-15.78-17.56-22.95-30.19C-21.6,187.15,21.69,101.6,99.91,103.59Z"/>
          <path class="cls-8" d="M169.73,332.06c68.47-76.3,.21-124.87-60.84-176.95-3.67-3.13-7.44-6.26-11.24-9.41-14.79-12.26-30.09-24.74-42.06-38.28-9.32-10.53-16.62-21.69-20.1-33.86-6.76-23.64,4.77-52.3,19.79-71.16,0,0,0-.01,0-.01C55.94,1.58,56.6,.78,57.27,0c-14.92,18.14-1.43,47.85,15.17,67.99,11.99,14.54,26.37,27.12,41.22,39.39,6.94,5.74,13.99,11.41,20.94,17.18,23.19,19.27,47.29,38.75,63.51,63.89,29.52,45.75,11.03,108.82-28.37,143.61Z"/>
          <path class="cls-17" d="M176.54,325.56c80.85-97.08-32.82-166.38-59.89-190.14-28.14-24.71-59.93-41.86-68.17-71.37-7.36-26.38-2.74-44.98,2.84-56.31C53.23,4.99,55.22,2.4,57.27,0c-14.92,18.14-1.43,47.85,15.17,67.99,17.6,21.35,40.37,38.48,62.16,56.57,23.19,19.27,47.29,38.75,63.51,63.89,27.77,43.03,13.06,101.38-21.56,137.1Z"/>
          <path class="cls-18" d="M176.54,325.56c5.16-6.26,9.9-12.88,13.99-19.88l1.52-2.63,1.43-2.69c.99-1.77,1.79-3.64,2.69-5.45,1.63-3.71,3.19-7.45,4.37-11.33l.47-1.44,.41-1.46c.27-.98,.56-1.95,.81-2.93,.45-1.97,.94-3.94,1.26-5.93,.4-1.98,.61-4,.88-6,.17-2.01,.36-4.03,.4-6.05,.29-8.09-.74-16.19-2.78-24.01-4.18-15.67-12.51-29.95-22.59-42.57-10.1-12.67-21.94-23.86-34.36-34.26-6.22-5.2-12.57-10.24-18.95-15.25-3.18-2.52-6.37-5.03-9.45-7.71-3.05-2.67-6.14-5.29-9.28-7.86-6.27-5.14-12.7-10.09-19.05-15.15-6.34-5.06-12.64-10.22-18.5-15.87-5.84-5.64-11.27-11.81-15.45-18.83-2.08-3.5-3.84-7.21-5.17-11.06-.33-.96-.61-1.95-.91-2.92l-.76-2.95c-.54-1.96-.91-3.96-1.33-5.95-.74-4-1.34-8.03-1.53-12.1-.23-4.06-.23-8.14,.18-12.19,.75-8.09,2.85-16.08,6.46-23.37h0s0,0,0,0c1.87-2.66,3.86-5.24,5.99-7.71-2.1,2.49-4.07,5.08-5.91,7.76h0c-3.53,7.3-5.54,15.29-6.21,23.35-.36,4.03-.33,8.09-.06,12.13,.24,4.04,.85,8.05,1.59,12.03,.42,1.98,.8,3.97,1.35,5.92l.77,2.94c.31,.96,.58,1.93,.91,2.89,1.32,3.81,3.07,7.47,5.15,10.94,4.16,6.94,9.57,13.05,15.41,18.65,5.85,5.6,12.14,10.72,18.5,15.76,6.36,5.03,12.81,9.97,19.11,15.09,3.15,2.56,6.27,5.18,9.33,7.84,3.06,2.64,6.25,5.14,9.44,7.65,6.38,5.01,12.8,9.99,19.01,15.24,12.42,10.46,24.26,21.73,34.37,34.5,10.09,12.71,18.42,27.11,22.58,42.91,2.04,7.88,3.04,16.05,2.72,24.19-.04,2.04-.24,4.06-.42,6.09-.27,2.02-.49,4.04-.9,6.04-.33,2.01-.83,3.98-1.29,5.97-.26,.98-.55,1.96-.82,2.94-.26,.98-.57,1.95-.91,2.91-1.23,3.88-2.83,7.63-4.5,11.33-.92,1.81-1.74,3.67-2.75,5.44l-1.45,2.68-1.55,2.62c-4.17,6.97-8.98,13.55-14.2,19.76Z"/>
          <path class="cls-3" d="M113.66,107.38l-5.01,12.7-10.99,25.61c-14.79-12.26-30.09-24.74-42.06-38.28-9.32-10.53-16.62-21.69-20.1-33.86-6.76-23.64,4.77-52.3,19.79-71.16,0,0,0-.01,0-.01C55.94,1.58,56.6,.78,57.27,0c-14.92,18.14-1.43,47.85,15.17,67.99,11.99,14.54,26.37,27.12,41.22,39.39Z"/>
          <path class="cls-5" d="M145.19,339.44v-.22s0,0,0,0h0s0,0,0,0c2.4-5.61,4.23-11.51,4.85-17.57,.65-6.04,.17-12.22-1.69-17.99-1.83-5.78-4.81-11.16-8.59-15.9-3.78-4.74-8.29-8.9-13.18-12.49-2.43-1.82-5-3.46-7.57-5.11l-7.71-4.97c-5.1-3.37-10.18-6.83-14.85-10.83-2.31-2.02-4.55-4.14-6.47-6.57-.95-1.22-1.81-2.52-2.45-3.94-.68-1.41-.99-2.96-1.18-4.49-.16-1.54-.09-3.09,.07-4.62,.22-1.52,.51-3.04,.94-4.51,.84-2.95,2.05-5.78,3.51-8.47-1.37,2.73-2.48,5.59-3.26,8.54-.39,1.47-.65,2.97-.82,4.48-.12,1.51-.16,3.03,.04,4.53,.22,1.48,.53,2.97,1.2,4.32,.63,1.36,1.49,2.61,2.43,3.79,1.9,2.35,4.15,4.42,6.47,6.38,4.7,3.87,9.73,7.33,14.85,10.65l7.73,4.93c2.58,1.64,5.18,3.28,7.65,5.11,4.94,3.66,9.48,7.89,13.3,12.73,3.81,4.83,6.87,10.32,8.62,16.24,.89,2.95,1.46,6,1.68,9.07,.21,3.07,.19,6.16-.23,9.21-.42,3.04-1.04,6.06-1.99,8.97-.87,2.94-2.08,5.76-3.34,8.54h0s0,0,0,0h0s-.02,.22-.02,.22Z"/>
        </g>
      </g>
    </g>
  </g>
</svg>